<svg version="1.1" id="Layer_1" xmlns="http://www.w3.org/2000/svg" xmlns:xlink="http://www.w3.org/1999/xlink" x="0px" y="0px"
	 width="100%" viewBox="0 0 1013 1017" enable-background="new 0 0 1013 1017" xml:space="preserve">
<path fill="none" opacity="1.000000" stroke="none" 
	d="
M576.000000,1018.000000 
	C384.000000,1018.000000 192.500000,1018.000000 1.000000,1018.000000 
	C1.000000,679.000000 1.000000,340.000000 1.000000,1.000000 
	C338.666656,1.000000 676.333313,1.000000 1014.000000,1.000000 
	C1014.000000,340.000000 1014.000000,679.000000 1014.000000,1018.000000 
	C868.166687,1018.000000 722.333313,1018.000000 576.000000,1018.000000 
M615.112427,641.493469 
	C615.446594,641.343018 615.780701,641.192505 616.937256,641.010010 
	C630.685730,641.287903 641.435120,626.106873 638.181702,613.324463 
	C636.478638,606.633240 631.758179,602.438049 628.172913,597.206421 
	C622.426147,588.820740 616.896973,580.232849 611.996155,571.333679 
	C605.599121,559.717468 599.719482,547.803833 593.950195,535.857361 
	C584.800293,516.910339 576.113586,497.738220 566.855530,478.845306 
	C562.301758,469.552399 556.256836,460.963593 552.026917,451.544098 
	C543.285767,432.078491 535.123047,412.344818 527.127930,392.557495 
	C524.664307,386.460205 521.818420,380.443970 521.738586,373.401489 
	C521.674194,367.714142 513.277954,364.469025 508.088654,367.286407 
	C506.419647,368.192566 504.406982,368.484894 502.533539,368.991394 
	C498.594482,370.056519 494.342499,370.464203 490.751495,372.226746 
	C477.842865,378.562622 475.076263,391.588074 478.782349,404.509979 
	C479.362488,406.532776 479.639771,409.128265 478.881042,410.976074 
	C468.092072,437.251740 456.937103,463.377472 446.196106,489.672424 
	C430.557526,527.957031 415.289551,566.393066 399.625397,604.667053 
	C395.158417,615.581787 389.866577,626.158936 384.352966,637.282593 
	C382.567169,640.870361 380.356079,644.319519 379.127625,648.088928 
	C378.110565,651.209717 378.252991,654.708435 377.970428,658.866150 
	C377.422424,670.400635 391.115753,678.890198 401.659424,676.557312 
	C409.473328,674.828491 417.119080,672.297974 424.782684,669.939209 
	C451.258026,661.790283 477.584900,653.445557 505.035248,648.560120 
	C529.829529,644.147461 554.734741,642.674072 579.706543,641.012756 
	C586.799072,640.540833 593.901917,640.222290 601.885620,639.958679 
	C606.240051,640.340454 610.594482,640.722290 614.969604,641.047668 
	C614.969604,641.047668 614.910278,641.057373 615.112427,641.493469 
M248.970444,950.866089 
	C249.204422,952.646179 249.068298,954.581360 249.737732,956.178955 
	C252.352188,962.418091 257.133270,966.163269 263.876190,966.935669 
	C271.154633,967.769287 277.160126,965.033081 281.801270,959.455322 
	C285.479858,955.034546 288.689423,950.195251 292.599030,946.000122 
	C305.383820,932.281555 318.150909,918.530640 331.389709,905.255859 
	C342.980438,893.633667 355.182281,882.619873 367.149231,871.374634 
	C370.644806,868.089783 374.237549,864.906982 377.824982,861.721558 
	C392.402527,848.777222 407.069244,835.932068 421.543549,822.873474 
	C426.856354,818.080261 431.548981,812.601685 436.837067,807.778381 
	C447.699371,797.870544 459.030975,788.463135 469.632324,778.290100 
	C473.902832,774.192200 476.123138,768.490845 474.567230,762.048645 
	C471.219604,748.187805 462.067230,745.209045 451.698425,745.473389 
	C439.286560,745.789734 427.027557,746.381653 414.706390,744.093445 
	C399.550079,741.278748 384.318420,738.822693 369.060944,736.615295 
	C358.321381,735.061523 347.507904,733.552612 336.685455,733.148682 
	C321.044922,732.565063 305.366364,732.993591 289.704041,733.001953 
	C275.967041,733.009277 266.553833,745.323425 269.843933,758.847229 
	C270.421844,761.222595 271.113770,763.784546 270.794373,766.129761 
	C268.336029,784.179199 265.088440,802.138550 263.193542,820.241821 
	C261.662231,834.871338 261.848938,849.673218 260.929108,864.377075 
	C260.426483,872.411804 259.174744,880.398071 258.323608,888.412903 
	C257.559937,895.604309 256.882172,902.804932 255.796509,910.693115 
	C255.586517,912.461670 255.376526,914.230286 255.034637,916.644897 
	C254.985870,917.081604 254.937103,917.518311 254.263535,918.446045 
	C252.710236,926.229431 251.082245,933.999023 249.644562,941.803650 
	C249.147110,944.504150 249.122391,947.291809 248.970444,950.866089 
M793.729187,457.722534 
	C799.359375,451.308899 798.592590,443.605133 798.029358,435.031708 
	C798.353638,389.598022 798.677673,344.164337 799.003113,298.730652 
	C799.007874,298.064331 798.984741,297.394257 799.045593,296.732452 
	C800.689453,278.846222 802.484558,260.972504 803.950134,243.071793 
	C805.162903,228.259293 805.676453,213.385406 807.082581,198.594131 
	C808.247131,186.342499 810.106384,174.148071 811.955078,161.973434 
	C813.186462,153.863968 807.841431,144.486069 800.025330,141.927475 
	C791.710571,139.205643 784.367737,141.989944 777.803650,149.640503 
	C769.675415,159.113953 761.494934,168.573273 752.826355,177.545258 
	C739.106812,191.745026 725.154480,205.733398 710.944641,219.442154 
	C696.874512,233.016068 682.031372,245.796555 668.123596,259.528992 
	C647.167236,280.221039 626.477478,301.199371 606.218506,322.571747 
	C599.789551,329.354034 592.964844,336.523407 591.672241,346.679932 
	C590.440491,356.359070 597.232605,365.338165 606.128052,363.613403 
	C611.427246,362.585938 615.009216,363.667664 619.201721,365.991455 
	C629.662292,371.789429 640.581665,376.818207 650.729004,383.104675 
	C659.215759,388.362427 666.846497,394.995728 674.898987,400.962219 
	C687.041626,409.959381 699.214600,418.915558 711.387329,427.872040 
	C726.467773,438.968048 741.399536,450.275665 756.697937,461.063049 
	C769.904358,470.375305 785.171204,468.420197 793.729187,457.722534 
M444.336853,55.050850 
	C443.891602,55.089447 443.446320,55.128044 442.219391,55.049248 
	C439.909088,55.764824 437.459747,56.195709 435.312134,57.244453 
	C425.132294,62.215565 422.766266,73.866333 425.985931,82.880737 
	C430.565552,95.702713 435.764374,108.302032 440.510193,121.066544 
	C446.392395,136.887497 451.811646,152.885513 457.945557,168.606232 
	C462.350342,179.895355 467.168091,191.069916 472.571259,201.912048 
	C480.769867,218.363586 489.608307,234.497192 498.231598,250.735779 
	C502.340240,258.472778 508.232391,265.185425 507.347382,275.211945 
	C506.860626,280.726440 511.214020,285.426483 515.879578,288.999298 
	C522.304871,293.919586 530.057190,294.011139 537.431885,294.563538 
	C543.899353,295.048004 551.542725,289.356995 551.667480,283.933777 
	C551.803955,277.997437 555.473511,274.674164 558.633423,271.012482 
	C571.335510,256.293213 584.603760,242.057816 597.152344,227.212097 
	C608.411255,213.892075 618.943848,199.960236 629.906311,186.386688 
	C637.355042,177.163834 644.888672,168.004913 652.579895,158.984070 
	C658.372864,152.189529 664.532227,145.708801 670.429138,139.001053 
	C681.875916,125.980377 693.362732,112.991776 704.600159,99.791733 
	C708.626099,95.062691 711.980225,89.761650 715.963074,84.057945 
	C717.014771,79.358719 718.066467,74.659492 719.029480,69.130363 
	C720.075317,60.464924 709.361694,48.473381 699.132507,49.061268 
	C685.466797,49.846661 671.799622,50.800190 658.181824,52.167404 
	C645.440308,53.446651 632.778687,55.501717 620.051697,56.950497 
	C609.255005,58.179531 598.415649,59.034428 587.594482,60.047779 
	C573.494995,61.368145 559.412048,62.925709 545.289429,63.919720 
	C534.218079,64.698959 523.097412,64.777031 511.250610,64.754745 
	C508.663269,64.503075 506.061279,64.352776 503.491058,63.982330 
	C491.849884,62.304531 480.206329,60.637184 468.586548,58.819534 
	C461.702698,57.742714 454.861481,56.393330 447.565521,55.029198 
	C447.565521,55.029198 447.114471,54.957428 446.900940,54.517677 
	C446.562286,54.664417 446.223663,54.811157 445.434631,55.029324 
	C445.434631,55.029324 444.999756,55.166557 444.336853,55.050850 
M358.110565,146.373260 
	C357.290222,144.952988 356.549103,143.479568 355.637146,142.120773 
	C347.425568,129.885605 339.427277,117.494720 330.800842,105.558273 
	C328.260437,102.043098 323.898010,99.854431 320.412872,97.006119 
	C319.419861,96.194557 318.160583,95.362473 317.733276,94.263741 
	C315.631134,88.858330 310.942139,87.801918 307.465393,91.220039 
	C302.474365,96.126923 297.102631,101.110634 293.716156,107.093307 
	C285.552948,121.514763 278.249023,136.438019 270.969391,151.340073 
	C262.951935,167.752518 255.326157,184.356750 247.572189,200.897339 
	C240.797913,215.348145 234.172729,229.869415 227.320862,244.283112 
	C215.951355,268.200195 204.855850,292.260529 192.872620,315.868500 
	C184.321075,332.715729 174.716568,349.044586 165.184692,365.372894 
	C157.538681,378.470703 166.083099,392.050995 177.291901,395.232391 
	C190.359741,398.941437 203.225403,396.670227 216.045044,394.776093 
	C232.906891,392.284729 249.666107,389.072083 266.433105,385.972870 
	C283.843628,382.754761 301.239685,379.443726 318.586761,375.902374 
	C330.305847,373.509949 341.897156,370.496582 353.602478,368.031006 
	C373.006104,363.943817 392.434479,359.966400 411.895386,356.162567 
	C420.422516,354.495819 429.013306,352.714874 437.650696,352.159241 
	C449.392914,351.403900 458.733887,339.355957 456.501312,327.681000 
	C455.232330,321.045105 450.784088,316.809814 447.274628,311.772156 
	C437.336304,297.506073 426.681641,283.673676 417.684143,268.836578 
	C409.361786,255.112854 402.718109,240.360519 395.530304,225.963760 
	C391.785126,218.462418 388.499146,210.732971 384.938751,203.138000 
	C376.159698,184.410675 367.342010,165.701492 358.110565,146.373260 
M708.997864,614.520142 
	C707.999939,617.986267 706.958740,621.440552 706.011108,624.920410 
	C700.325378,645.798157 694.744263,666.704834 688.965637,687.556885 
	C683.539185,707.138000 677.538330,726.569885 672.603638,746.271179 
	C671.152710,752.064026 670.498230,758.592041 674.015747,764.611206 
	C680.658813,775.978760 691.427063,777.219604 702.554504,775.762451 
	C717.829529,773.762207 733.055603,771.060913 748.110413,767.778687 
	C774.526855,762.019409 800.784302,755.533813 827.136597,749.475342 
	C835.917419,747.456604 844.725403,744.734680 853.626221,744.244202 
	C868.345154,743.433044 877.112366,730.507263 874.572388,716.917908 
	C873.186462,709.502869 868.090942,704.679688 864.035767,699.029480 
	C851.640381,681.758362 843.952209,662.081238 836.169006,642.570251 
	C829.242065,625.205811 823.430664,607.388367 817.386719,589.682190 
	C812.091614,574.169617 807.376221,558.457642 801.983948,542.980286 
	C798.603638,533.277832 786.129822,525.457336 776.572083,527.197815 
	C770.443970,528.313782 764.589539,530.932556 757.899536,533.109680 
	C749.072144,526.866943 742.334900,530.389648 735.990479,539.095581 
	C726.110840,552.652649 722.667725,568.967041 717.134338,584.333252 
	C713.706665,593.851685 711.743103,603.897339 708.997864,614.520142 
M290.998932,539.501526 
	C293.023987,536.914673 295.042236,534.322449 297.075317,531.741943 
	C304.915070,521.791260 312.881317,511.937073 320.550232,501.856567 
	C324.306244,496.919464 328.626526,491.975281 330.717743,486.306244 
	C334.197296,476.873413 332.345520,467.850922 323.850739,461.170288 
	C326.377472,457.061768 327.302765,453.036499 323.886475,449.517212 
	C320.058167,445.573486 315.097229,442.907318 309.646515,444.336548 
	C297.643860,447.483765 285.549377,450.626556 274.001129,455.088013 
	C251.043167,463.957458 228.230988,473.269928 205.731812,483.241547 
	C186.038681,491.969574 166.894821,501.930969 147.435333,511.194153 
	C135.109344,517.061646 122.612862,522.570312 110.268158,528.399414 
	C105.427460,530.685181 101.374306,533.968018 99.979660,539.528503 
	C97.500656,549.412292 100.253906,556.226562 108.556755,562.118774 
	C114.315536,566.205566 120.241226,570.217285 125.318535,575.071899 
	C136.743988,585.996216 146.787155,598.229492 155.119064,611.646851 
	C161.082077,621.249451 165.864227,631.582275 171.244675,641.550781 
	C174.234970,647.091003 177.714417,652.060486 184.276703,654.057739 
	C196.670563,657.829712 205.539429,651.727478 212.969543,643.291260 
	C221.002609,634.170410 228.370667,624.431946 235.624222,614.662598 
	C254.033752,589.867981 272.217041,564.905457 290.998932,539.501526 
z"/>
<path fill="#2B58A6" opacity="1.000000" stroke="none" 
	d="
M358.325195,146.679138 
	C367.342010,165.701492 376.159698,184.410675 384.938751,203.138000 
	C388.499146,210.732971 391.785126,218.462418 395.530304,225.963760 
	C402.718109,240.360519 409.361786,255.112854 417.684143,268.836578 
	C426.681641,283.673676 437.336304,297.506073 447.274628,311.772156 
	C450.784088,316.809814 455.232330,321.045105 456.501312,327.681000 
	C458.733887,339.355957 449.392914,351.403900 437.650696,352.159241 
	C429.013306,352.714874 420.422516,354.495819 411.895386,356.162567 
	C392.434479,359.966400 373.006104,363.943817 353.602478,368.031006 
	C341.897156,370.496582 330.305847,373.509949 318.586761,375.902374 
	C301.239685,379.443726 283.843628,382.754761 266.433105,385.972870 
	C249.666107,389.072083 232.906891,392.284729 216.045044,394.776093 
	C203.225403,396.670227 190.359741,398.941437 177.291901,395.232391 
	C166.083099,392.050995 157.538681,378.470703 165.184692,365.372894 
	C174.716568,349.044586 184.321075,332.715729 192.872620,315.868500 
	C204.855850,292.260529 215.951355,268.200195 227.320862,244.283112 
	C234.172729,229.869415 240.797913,215.348145 247.572189,200.897339 
	C255.326157,184.356750 262.951935,167.752518 270.969391,151.340073 
	C278.249023,136.438019 285.552948,121.514763 293.716156,107.093307 
	C297.102631,101.110634 302.474365,96.126923 307.465393,91.220039 
	C310.942139,87.801918 315.631134,88.858330 317.733276,94.263741 
	C318.160583,95.362473 319.419861,96.194557 320.412872,97.006119 
	C323.898010,99.854431 328.260437,102.043098 330.800842,105.558273 
	C339.427277,117.494720 347.425568,129.885605 355.637146,142.120773 
	C356.549103,143.479568 357.290222,144.952988 358.325195,146.679138 
z"/>
<path fill="#2B58A6" opacity="1.000000" stroke="none" 
	d="
M384.953003,636.890869 
	C389.866577,626.158936 395.158417,615.581787 399.625397,604.667053 
	C415.289551,566.393066 430.557526,527.957031 446.196106,489.672424 
	C456.937103,463.377472 468.092072,437.251740 478.881042,410.976074 
	C479.639771,409.128265 479.362488,406.532776 478.782349,404.509979 
	C475.076263,391.588074 477.842865,378.562622 490.751495,372.226746 
	C494.342499,370.464203 498.594482,370.056519 502.533539,368.991394 
	C504.406982,368.484894 506.419647,368.192566 508.088654,367.286407 
	C513.277954,364.469025 521.674194,367.714142 521.738586,373.401489 
	C521.818420,380.443970 524.664307,386.460205 527.127930,392.557495 
	C535.123047,412.344818 543.285767,432.078491 552.026917,451.544098 
	C556.256836,460.963593 562.301758,469.552399 566.855530,478.845306 
	C576.113586,497.738220 584.800293,516.910339 593.950195,535.857361 
	C599.719482,547.803833 605.599121,559.717468 611.996155,571.333679 
	C616.896973,580.232849 622.426147,588.820740 628.172913,597.206421 
	C631.758179,602.438049 636.478638,606.633240 638.181702,613.324463 
	C641.435120,626.106873 630.685730,641.287903 616.224854,641.027344 
	C615.311707,641.049011 615.110962,641.053223 614.910278,641.057373 
	C614.910278,641.057373 614.969604,641.047668 614.772339,640.779663 
	C609.633606,636.291321 604.749756,636.047302 601.000000,639.833435 
	C593.901917,640.222290 586.799072,640.540833 579.706543,641.012756 
	C554.734741,642.674072 529.829529,644.147461 505.035248,648.560120 
	C477.584900,653.445557 451.258026,661.790283 424.782684,669.939209 
	C417.119080,672.297974 409.473328,674.828491 401.659424,676.557312 
	C391.115753,678.890198 377.422424,670.400635 378.189178,658.205200 
	C380.636932,651.957092 382.945099,646.399231 385.028107,640.758118 
	C385.443970,639.631897 385.000336,638.188171 384.953003,636.890869 
z"/>
<path fill="#2B58A6" opacity="1.000000" stroke="none" 
	d="
M715.640930,84.721680 
	C711.980225,89.761650 708.626099,95.062691 704.600159,99.791733 
	C693.362732,112.991776 681.875916,125.980377 670.429138,139.001053 
	C664.532227,145.708801 658.372864,152.189529 652.579895,158.984070 
	C644.888672,168.004913 637.355042,177.163834 629.906311,186.386688 
	C618.943848,199.960236 608.411255,213.892075 597.152344,227.212097 
	C584.603760,242.057816 571.335510,256.293213 558.633423,271.012482 
	C555.473511,274.674164 551.803955,277.997437 551.667480,283.933777 
	C551.542725,289.356995 543.899353,295.048004 537.431885,294.563538 
	C530.057190,294.011139 522.304871,293.919586 515.879578,288.999298 
	C511.214020,285.426483 506.860626,280.726440 507.347382,275.211945 
	C508.232391,265.185425 502.340240,258.472778 498.231598,250.735779 
	C489.608307,234.497192 480.769867,218.363586 472.571259,201.912048 
	C467.168091,191.069916 462.350342,179.895355 457.945557,168.606232 
	C451.811646,152.885513 446.392395,136.887497 440.510193,121.066544 
	C435.764374,108.302032 430.565552,95.702713 425.985931,82.880737 
	C422.766266,73.866333 425.132294,62.215565 435.312134,57.244453 
	C437.459747,56.195709 439.909088,55.764824 442.730713,55.239143 
	C443.827911,55.341549 444.413849,55.254055 444.999756,55.166557 
	C444.999756,55.166557 445.434631,55.029324 445.967194,54.995598 
	C446.704651,54.960392 446.909546,54.958912 447.114471,54.957428 
	C447.114471,54.957428 447.565521,55.029198 448.009216,55.353230 
	C449.909698,56.400623 451.295685,57.375366 452.834167,57.808727 
	C469.433319,62.484306 486.291046,65.818977 503.538666,66.733475 
	C506.323120,66.881111 509.176910,65.721794 511.998627,65.166618 
	C523.097412,64.777031 534.218079,64.698959 545.289429,63.919720 
	C559.412048,62.925709 573.494995,61.368145 587.594482,60.047779 
	C598.415649,59.034428 609.255005,58.179531 620.051697,56.950497 
	C632.778687,55.501717 645.440308,53.446651 658.181824,52.167404 
	C671.799622,50.800190 685.466797,49.846661 699.132507,49.061268 
	C709.361694,48.473381 720.075317,60.464924 718.811646,69.786407 
	C717.609497,75.202194 716.625244,79.961937 715.640930,84.721680 
z"/>
<path fill="#2B58A6" opacity="1.000000" stroke="none" 
	d="
M793.111572,458.045135 
	C785.171204,468.420197 769.904358,470.375305 756.697937,461.063049 
	C741.399536,450.275665 726.467773,438.968048 711.387329,427.872040 
	C699.214600,418.915558 687.041626,409.959381 674.898987,400.962219 
	C666.846497,394.995728 659.215759,388.362427 650.729004,383.104675 
	C640.581665,376.818207 629.662292,371.789429 619.201721,365.991455 
	C615.009216,363.667664 611.427246,362.585938 606.128052,363.613403 
	C597.232605,365.338165 590.440491,356.359070 591.672241,346.679932 
	C592.964844,336.523407 599.789551,329.354034 606.218506,322.571747 
	C626.477478,301.199371 647.167236,280.221039 668.123596,259.528992 
	C682.031372,245.796555 696.874512,233.016068 710.944641,219.442154 
	C725.154480,205.733398 739.106812,191.745026 752.826355,177.545258 
	C761.494934,168.573273 769.675415,159.113953 777.803650,149.640503 
	C784.367737,141.989944 791.710571,139.205643 800.025330,141.927475 
	C807.841431,144.486069 813.186462,153.863968 811.955078,161.973434 
	C810.106384,174.148071 808.247131,186.342499 807.082581,198.594131 
	C805.676453,213.385406 805.162903,228.259293 803.950134,243.071793 
	C802.484558,260.972504 800.689453,278.846222 799.045593,296.732452 
	C798.984741,297.394257 799.007874,298.064331 799.003113,298.730652 
	C798.677673,344.164337 798.353638,389.598022 797.804382,435.761597 
	C796.090088,443.676025 794.600830,450.860596 793.111572,458.045135 
z"/>
<path fill="#2B58A6" opacity="1.000000" stroke="none" 
	d="
M709.060059,614.113281 
	C711.743103,603.897339 713.706665,593.851685 717.134338,584.333252 
	C722.667725,568.967041 726.110840,552.652649 735.990479,539.095581 
	C742.334900,530.389648 749.072144,526.866943 757.899536,533.109680 
	C764.589539,530.932556 770.443970,528.313782 776.572083,527.197815 
	C786.129822,525.457336 798.603638,533.277832 801.983948,542.980286 
	C807.376221,558.457642 812.091614,574.169617 817.386719,589.682190 
	C823.430664,607.388367 829.242065,625.205811 836.169006,642.570251 
	C843.952209,662.081238 851.640381,681.758362 864.035767,699.029480 
	C868.090942,704.679688 873.186462,709.502869 874.572388,716.917908 
	C877.112366,730.507263 868.345154,743.433044 853.626221,744.244202 
	C844.725403,744.734680 835.917419,747.456604 827.136597,749.475342 
	C800.784302,755.533813 774.526855,762.019409 748.110413,767.778687 
	C733.055603,771.060913 717.829529,773.762207 702.554504,775.762451 
	C691.427063,777.219604 680.658813,775.978760 674.015747,764.611206 
	C670.498230,758.592041 671.152710,752.064026 672.603638,746.271179 
	C677.538330,726.569885 683.539185,707.138000 688.965637,687.556885 
	C694.744263,666.704834 700.325378,645.798157 706.011108,624.920410 
	C706.958740,621.440552 707.999939,617.986267 709.060059,614.113281 
z"/>
<path fill="#2B58A6" opacity="1.000000" stroke="none" 
	d="
M254.888336,917.955017 
	C254.937103,917.518311 254.985870,917.081604 255.354767,916.136963 
	C257.694733,913.915344 258.279724,912.076294 256.166504,910.001465 
	C256.882172,902.804932 257.559937,895.604309 258.323608,888.412903 
	C259.174744,880.398071 260.426483,872.411804 260.929108,864.377075 
	C261.848938,849.673218 261.662231,834.871338 263.193542,820.241821 
	C265.088440,802.138550 268.336029,784.179199 270.794373,766.129761 
	C271.113770,763.784546 270.421844,761.222595 269.843933,758.847229 
	C266.553833,745.323425 275.967041,733.009277 289.704041,733.001953 
	C305.366364,732.993591 321.044922,732.565063 336.685455,733.148682 
	C347.507904,733.552612 358.321381,735.061523 369.060944,736.615295 
	C384.318420,738.822693 399.550079,741.278748 414.706390,744.093445 
	C427.027557,746.381653 439.286560,745.789734 451.698425,745.473389 
	C462.067230,745.209045 471.219604,748.187805 474.567230,762.048645 
	C476.123138,768.490845 473.902832,774.192200 469.632324,778.290100 
	C459.030975,788.463135 447.699371,797.870544 436.837067,807.778381 
	C431.548981,812.601685 426.856354,818.080261 421.543549,822.873474 
	C407.069244,835.932068 392.402527,848.777222 377.824982,861.721558 
	C374.237549,864.906982 370.644806,868.089783 367.149231,871.374634 
	C355.182281,882.619873 342.980438,893.633667 331.389709,905.255859 
	C318.150909,918.530640 305.383820,932.281555 292.599030,946.000122 
	C288.689423,950.195251 285.479858,955.034546 281.801270,959.455322 
	C277.160126,965.033081 271.154633,967.769287 263.876190,966.935669 
	C257.133270,966.163269 252.352188,962.418091 249.737732,956.178955 
	C249.068298,954.581360 249.204422,952.646179 249.190125,950.200562 
	C251.407120,942.417358 253.722931,935.367371 255.256882,928.151245 
	C255.942825,924.924438 255.059494,921.364014 254.888336,917.955017 
z"/>
<path fill="#2B58A6" opacity="1.000000" stroke="none" 
	d="
M290.744934,539.755859 
	C272.217041,564.905457 254.033752,589.867981 235.624222,614.662598 
	C228.370667,624.431946 221.002609,634.170410 212.969543,643.291260 
	C205.539429,651.727478 196.670563,657.829712 184.276703,654.057739 
	C177.714417,652.060486 174.234970,647.091003 171.244675,641.550781 
	C165.864227,631.582275 161.082077,621.249451 155.119064,611.646851 
	C146.787155,598.229492 136.743988,585.996216 125.318535,575.071899 
	C120.241226,570.217285 114.315536,566.205566 108.556755,562.118774 
	C100.253906,556.226562 97.500656,549.412292 99.979660,539.528503 
	C101.374306,533.968018 105.427460,530.685181 110.268158,528.399414 
	C122.612862,522.570312 135.109344,517.061646 147.435333,511.194153 
	C166.894821,501.930969 186.038681,491.969574 205.731812,483.241547 
	C228.230988,473.269928 251.043167,463.957458 274.001129,455.088013 
	C285.549377,450.626556 297.643860,447.483765 309.646515,444.336548 
	C315.097229,442.907318 320.058167,445.573486 323.886475,449.517212 
	C327.302765,453.036499 326.377472,457.061768 323.850739,461.170288 
	C332.345520,467.850922 334.197296,476.873413 330.717743,486.306244 
	C328.626526,491.975281 324.306244,496.919464 320.550232,501.856567 
	C312.881317,511.937073 304.915070,521.791260 297.075317,531.741943 
	C295.042236,534.322449 293.023987,536.914673 290.744934,539.755859 
z"/>
<path fill="#2B58A6" opacity="1.000000" stroke="none" 
	d="
M511.624634,64.960686 
	C509.176910,65.721794 506.323120,66.881111 503.538666,66.733475 
	C486.291046,65.818977 469.433319,62.484306 452.834167,57.808727 
	C451.295685,57.375366 449.909698,56.400623 448.226990,55.421883 
	C454.861481,56.393330 461.702698,57.742714 468.586548,58.819534 
	C480.206329,60.637184 491.849884,62.304531 503.491058,63.982330 
	C506.061279,64.352776 508.663269,64.503075 511.624634,64.960686 
z"/>
<path fill="#2B58A6" opacity="1.000000" stroke="none" 
	d="
M254.575928,918.200562 
	C255.059494,921.364014 255.942825,924.924438 255.256882,928.151245 
	C253.722931,935.367371 251.407120,942.417358 249.145767,949.787292 
	C249.122391,947.291809 249.147110,944.504150 249.644562,941.803650 
	C251.082245,933.999023 252.710236,926.229431 254.575928,918.200562 
z"/>
<path fill="#2B58A6" opacity="1.000000" stroke="none" 
	d="
M793.420410,457.883850 
	C794.600830,450.860596 796.090088,443.676025 797.848816,436.225891 
	C798.592590,443.605133 799.359375,451.308899 793.420410,457.883850 
z"/>
<path fill="#2B58A6" opacity="1.000000" stroke="none" 
	d="
M384.652985,637.086731 
	C385.000336,638.188171 385.443970,639.631897 385.028107,640.758118 
	C382.945099,646.399231 380.636932,651.957092 378.144836,657.791992 
	C378.252991,654.708435 378.110565,651.209717 379.127625,648.088928 
	C380.356079,644.319519 382.567169,640.870361 384.652985,637.086731 
z"/>
<path fill="#2B58A6" opacity="1.000000" stroke="none" 
	d="
M601.442810,639.896057 
	C604.749756,636.047302 609.633606,636.291321 614.762024,640.807922 
	C610.594482,640.722290 606.240051,640.340454 601.442810,639.896057 
z"/>
<path fill="#2B58A6" opacity="1.000000" stroke="none" 
	d="
M715.802002,84.389809 
	C716.625244,79.961937 717.609497,75.202194 718.855957,70.201363 
	C718.066467,74.659492 717.014771,79.358719 715.802002,84.389809 
z"/>
<path fill="#2B58A6" opacity="1.000000" stroke="none" 
	d="
M255.981506,910.347290 
	C258.279724,912.076294 257.694733,913.915344 255.420715,915.813965 
	C255.376526,914.230286 255.586517,912.461670 255.981506,910.347290 
z"/>
<path fill="#2B58A6" opacity="1.000000" stroke="none" 
	d="
M444.668304,55.108704 
	C444.413849,55.254055 443.827911,55.341549 443.121521,55.297844 
	C443.446320,55.128044 443.891602,55.089447 444.668304,55.108704 
z"/>
<path fill="#2B58A6" opacity="1.000000" stroke="none" 
	d="
M447.007690,54.737553 
	C446.909546,54.958912 446.704651,54.960392 446.192383,54.959885 
	C446.223663,54.811157 446.562286,54.664417 447.007690,54.737553 
z"/>
<path fill="#2B58A6" opacity="1.000000" stroke="none" 
	d="
M615.011353,641.275391 
	C615.110962,641.053223 615.311707,641.049011 615.813721,641.043396 
	C615.780701,641.192505 615.446594,641.343018 615.011353,641.275391 
z"/>
</svg>